<svg viewBox="0 0 1024 1024" version="1.1" xmlns="http://www.w3.org/2000/svg" width="24" height="24">
  <path
    d="M1004.128 321.092L762.77 79.735a68.267 68.267 0 0 0-96.546 0l-30.293 30.294a68.284 68.284 0 0 1-48.265 20.002H436.474a68.181 68.181 0 0 1-48.265-20.002l-30.293-30.294a68.267 68.267 0 0 0-96.546 0L19.996 321.092a68.267 68.267 0 0 0 0 96.546l96.546 96.547a67.84 67.84 0 0 0 66.645 17.271c10.804-3.072 21.675 4.181 21.675 15.411V896c0 37.547 30.72 68.267 68.267 68.267h477.865c37.547 0 68.267-30.72 68.267-68.267V546.867c0-11.23 10.872-18.483 21.675-15.411a67.84 67.84 0 0 0 66.645-17.271l96.546-96.547a68.267 68.267 0 0 0 0-96.546z"
    fill="#42B883"></path>
  <path
    d="M441.1431595 348.95255351v202.81898745h55.31419072v165.94257219l129.06615694-221.25676293H551.77154096L625.52350716 348.95255351H441.1431595z"
    fill="#FFAB00"></path>
</svg>
